<?xml version="1.0" encoding="UTF-8" standalone="no"?>
<svg
   xmlns:dc="http://purl.org/dc/elements/1.1/"
   xmlns:cc="http://creativecommons.org/ns#"
   xmlns:rdf="http://www.w3.org/1999/02/22-rdf-syntax-ns#"
   xmlns:svg="http://www.w3.org/2000/svg"
   xmlns="http://www.w3.org/2000/svg"
   viewBox="0 0 312.38666 196.96001"
   height="196.96001"
   width="312.38666"
   xml:space="preserve"
   id="svg2"
   version="1.1"><metadata
     id="metadata8"><rdf:RDF><cc:Work
         rdf:about=""><dc:format>image/svg+xml</dc:format><dc:type
           rdf:resource="http://purl.org/dc/dcmitype/StillImage" /></cc:Work></rdf:RDF></metadata><defs
     id="defs6" /><g
     transform="matrix(1.3333333,0,0,-1.3333333,0,196.96)"
     id="g10"><g
       transform="scale(0.1)"
       id="g12"><path
         id="path14"
         style="fill:#a81551;fill-opacity:1;fill-rule:nonzero;stroke:none"
         d="m 78.1328,114.449 c -6,8.153 -15.5664,12.289 -25.2656,12.289 -22.5508,0 -38.5352,-19.847 -38.5352,-41.9997 0,-23.3672 15.8399,-41.918 38.5352,-41.918 12.2851,0 22.1094,5.0117 29.25,14.1406 l 8.9922,-7.5703 C 82.1172,37.2617 68.9688,31.6797 52.8672,31.6797 c -28.9649,0 -51.38673,22.4219 -51.38673,53.0586 0,29.7107 21.39063,53.1017 51.38673,53.1017 13.6953,0 27.1016,-4.668 35.6875,-15.828 l -10.4219,-7.563" /><path
         id="path16"
         style="fill:#a81551;fill-opacity:1;fill-rule:nonzero;stroke:none"
         d="m 359.027,72.8008 c 0,-21.9727 -10.257,-41.1211 -38.086,-41.1211 -27.836,0 -38.105,19.1484 -38.105,41.1211 v 62.4802 h 11.988 V 74.5 c 0,-16.2695 6,-31.6797 26.117,-31.6797 20.106,0 26.11,15.4102 26.11,31.6797 v 60.781 h 11.976 V 72.8008" /><path
         id="path18"
         style="fill:#a81551;fill-opacity:1;fill-rule:nonzero;stroke:none"
         d="m 104.77,101.059 h 11.148 V 34.2617 H 104.77 Z m 5.562,34.25 c 4.578,0 8.121,-3.719 8.121,-8.149 0,-4.691 -3.41,-8.129 -8.121,-8.129 -4.707,0 -8.121,3.438 -8.121,8.129 0,4.43 3.574,8.149 8.121,8.149" /><path
         id="path20"
         style="fill:#a81551;fill-opacity:1;fill-rule:nonzero;stroke:none"
         d="M 171.586,91.6484 H 151.859 V 58.2305 c 0,-8.5508 0.157,-15.4102 10.028,-15.4102 3.265,0 6.82,0.7305 9.832,2.2891 l 0.398,-10.1406 c -3.836,-1.7188 -8.832,-2.4102 -12.957,-2.4102 -15.84,0 -18.406,8.543 -18.406,22.4102 v 36.6796 h -14.555 v 9.4106 h 14.555 v 18.972 h 11.105 v -18.972 h 19.727 v -9.4106" /><path
         id="path22"
         style="fill:#a81551;fill-opacity:1;fill-rule:nonzero;stroke:none"
         d="M 215.625,18.9805 C 211.25,7.71875 206.793,0 193.383,0 c -3.149,0 -6.996,0.308594 -9.985,1.73047 l 1.411,9.69143 c 2.289,-0.8711 4.711,-1.1328 7.855,-1.1328 7.301,0 10,4.4218 12.41,11 l 4.555,12.539 -27.649,67.2309 h 12.961 l 20.684,-52.3793 h 0.313 l 19.843,52.3793 h 12.117 L 215.625,18.9805" /><path
         id="path24"
         style="fill:#a81551;fill-opacity:1;fill-rule:nonzero;stroke:none"
         d="m 373.723,85.1992 c 0,6.1524 -0.571,11.4297 -0.571,15.8598 h 10.555 c 0,-3.5981 0.293,-7.2895 0.293,-10.9809 h 0.285 c 2.988,6.5508 11.285,12.6719 22.246,12.6719 17.567,0 25.418,-11.1016 25.418,-27.2383 v -41.25 h -11.125 v 40.0977 c 0,11.1523 -4.847,18.1406 -15.269,18.1406 -14.418,0 -20.688,-10.4609 -20.688,-25.7109 V 34.2617 h -11.144 v 50.9375" /><path
         id="path26"
         style="fill:#a81551;fill-opacity:1;fill-rule:nonzero;stroke:none"
         d="m 447.523,101.059 h 11.11 V 34.2617 h -11.11 z m 5.582,34.25 c 4.524,0 8.09,-3.719 8.09,-8.149 0,-4.691 -3.406,-8.129 -8.09,-8.129 -4.722,0 -8.144,3.438 -8.144,8.129 0,4.43 3.57,8.149 8.144,8.149" /><path
         id="path28"
         style="fill:#a81551;fill-opacity:1;fill-rule:nonzero;stroke:none"
         d="m 511.918,34.2617 h -12.27 l -27.246,66.7973 h 12.985 L 506.23,48.6797 h 0.278 l 19.82,52.3793 h 11.981 L 511.918,34.2617" /><path
         id="path30"
         style="fill:#a81551;fill-opacity:1;fill-rule:nonzero;stroke:none"
         d="m 672.641,51.8203 c 4.39,-5.4219 9.254,-9 17.101,-9 7.02,0 14.715,3.0078 14.715,10.3008 0,7.0977 -7.137,8.9492 -14.277,10.5508 -12.7,2.8164 -23.543,5.5469 -23.543,19.3984 0,12.961 12.562,19.7107 24.968,19.7107 9.415,0 18.118,-3.6013 22.692,-12.1404 L 705.039,84.5 c -2.894,4.6719 -7.59,8 -14.144,8 -6.145,0 -13.153,-3.0117 -13.153,-9.2812 0,-5.5704 8.028,-7.9883 16.875,-9.7188 11.824,-2.2891 21.805,-6.5312 21.805,-20 0,-15.1016 -13.418,-20.9414 -26.68,-20.9414 -11.269,0 -19.375,2.9805 -25.976,12.4023 l 8.875,6.8594" /><path
         id="path32"
         style="fill:#a81551;fill-opacity:1;fill-rule:nonzero;stroke:none"
         d="M 595.094,73.6406 C 594.672,84.9219 587.227,92.5 574.98,92.5 c -12.308,0 -20.429,-7.5781 -21.859,-18.8594 z m 9.551,-27.2422 c -7.86,-10.1367 -17.262,-13.8398 -29.665,-13.8398 -20.988,0 -33.863,15.6719 -33.863,35.0898 0,20.6914 14.598,35.1016 34.278,35.1016 18.828,0 31.656,-12.8281 31.656,-34.9609 v -3.5586 h -53.93 c 0.871,-11.5899 9.684,-21.4102 21.859,-21.4102 9.536,0 15.989,3.4102 21.25,10.1602 l 8.415,-6.5821" /><path
         id="path34"
         style="fill:#a81551;fill-opacity:1;fill-rule:nonzero;stroke:none"
         d="m 621.254,85.1992 c 0,6.1524 -0.566,11.4297 -0.566,15.8598 h 10.562 c 0,-3.5981 0.277,-7.2895 0.277,-10.9809 h 0.278 c 3.015,6.5508 11.289,12.6719 22.273,12.6719 1.438,0 2.988,-0.141 4.574,-0.73 l -0.714,-11.2387 c -1.879,0.5703 -3.993,0.8671 -6.004,0.8671 -13.571,0 -19.547,-9.6093 -19.547,-24.8593 V 34.2617 h -11.133 v 50.9375" /><path
         id="path36"
         style="fill:#a81551;fill-opacity:1;fill-rule:nonzero;stroke:none"
         d="m 729.438,101.059 h 11.148 V 34.2617 h -11.148 z m 5.574,34.25 c 4.574,0 8.117,-3.719 8.117,-8.149 0,-4.691 -3.41,-8.129 -8.117,-8.129 -4.707,0 -8.125,3.438 -8.125,8.129 0,4.43 3.558,8.149 8.125,8.149" /><path
         id="path38"
         style="fill:#a81551;fill-opacity:1;fill-rule:nonzero;stroke:none"
         d="M 799.039,91.6484 H 779.305 V 58.2305 c 0,-8.5508 0.144,-15.4102 10.027,-15.4102 3.266,0 6.824,0.7305 9.84,2.2891 l 0.394,-10.1406 c -3.847,-1.7188 -8.836,-2.4102 -12.972,-2.4102 -15.832,0 -18.41,8.543 -18.41,22.4102 v 36.6796 h -14.547 v 9.4106 h 14.547 v 18.972 h 11.121 v -18.972 h 19.734 v -9.4106" /><path
         id="path40"
         style="fill:#a81551;fill-opacity:1;fill-rule:nonzero;stroke:none"
         d="M 840.863,18.9805 C 836.488,7.71875 832.031,0 818.617,0 c -3.156,0 -6.992,0.308594 -9.98,1.73047 l 1.402,9.69143 c 2.301,-0.8711 4.719,-1.1328 7.883,-1.1328 7.269,0 9.984,4.4218 12.375,11 l 4.574,12.539 -27.66,67.2309 h 12.969 l 20.683,-52.3793 h 0.305 l 19.84,52.3793 h 12.137 L 840.863,18.9805" /><path
         id="path42"
         style="fill:#a81551;fill-opacity:1;fill-rule:nonzero;stroke:none"
         d="m 939.262,42.8203 c 14.445,0 23.703,10.8516 23.703,24.8281 0,13.9922 -9.258,24.8399 -23.703,24.8399 -14.383,0 -23.668,-10.8477 -23.668,-24.8399 0,-13.9765 9.285,-24.8281 23.668,-24.8281 m 0,59.9607 c 20.582,0 35.695,-14.2927 35.695,-35.1326 0,-20.8671 -15.113,-35.0898 -35.695,-35.0898 -20.547,0 -35.625,14.2227 -35.625,35.0898 0,20.8399 15.078,35.1326 35.625,35.1326" /><path
         id="path44"
         style="fill:#a81551;fill-opacity:1;fill-rule:nonzero;stroke:none"
         d="m 994.16,91.6484 h -14.547 v 9.4106 h 14.547 v 14.972 c 0,16.289 5.692,27.848 23.69,27.848 2.85,0 6.45,-0.57 8.58,-1.75 l -1.6,-9.969 c -2.43,0.86 -5,1.43 -7.55,1.43 -11.58,0 -12,-8.41 -12,-19.981 v -12.55 h 16.28 v -9.4106 h -16.28 V 34.2617 h -11.12 v 57.3867" /><path
         id="path46"
         style="fill:#a81551;fill-opacity:1;fill-rule:nonzero;stroke:none"
         d="m 1067.26,135.309 h 12 V 92.5 h 53.94 v 42.809 h 11.99 V 34.2617 h -11.99 v 47.0899 h -53.94 V 34.2617 h -12 V 135.309" /><path
         id="path48"
         style="fill:#a81551;fill-opacity:1;fill-rule:nonzero;stroke:none"
         d="m 1194.81,42.8203 c 14.38,0 23.68,10.8516 23.68,24.8281 0,13.9922 -9.3,24.8399 -23.68,24.8399 -14.43,0 -23.73,-10.8477 -23.73,-24.8399 0,-13.9765 9.3,-24.8281 23.73,-24.8281 m 0,59.9607 c 20.56,0 35.66,-14.2927 35.66,-35.1326 0,-20.8671 -15.1,-35.0898 -35.66,-35.0898 -20.54,0 -35.69,14.2227 -35.69,35.0898 0,20.8399 15.15,35.1326 35.69,35.1326" /><path
         id="path50"
         style="fill:#a81551;fill-opacity:1;fill-rule:nonzero;stroke:none"
         d="m 1244.41,85.1992 c 0,6.1524 -0.55,11.4297 -0.55,15.8598 h 10.54 c 0,-3.5981 0.27,-7.2895 0.27,-10.9809 h 0.3 c 2.98,6.5508 11.26,12.6719 22.26,12.6719 17.54,0 25.39,-11.1016 25.39,-27.2383 v -41.25 h -11.13 v 40.0977 c 0,11.1523 -4.82,18.1406 -15.25,18.1406 -14.43,0 -20.7,-10.4609 -20.7,-25.7109 V 34.2617 h -11.13 v 50.9375" /><path
         id="path52"
         style="fill:#a81551;fill-opacity:1;fill-rule:nonzero;stroke:none"
         d="m 1351.18,43.6797 c 15.29,0 23.85,11.4414 23.85,24.2695 0,14.4102 -9.72,24.5508 -23.85,24.5508 -13.96,0 -23.54,-10.8594 -23.54,-24.8516 0,-13.5468 10.56,-23.9687 23.54,-23.9687 m 34.97,-6.418 C 1386.15,13.1094 1373.18,0 1349.76,0 c -12.99,0 -23.38,3.41016 -32.83,12.6797 l 8.01,9.1797 c 6.97,-7.5899 14.55,-11.5703 24.82,-11.5703 19.99,0 25.27,12.8398 25.27,26.9726 v 8.5664 h -0.28 c -5.3,-8.5664 -14.73,-12.4375 -23.57,-12.4375 -20.97,0 -35.51,14.5899 -35.51,34.2578 0,21.8399 14.25,35.1326 35.51,35.1326 9,0 19.13,-4.2927 23.57,-13.1521 h 0.28 v 11.4301 h 11.12 V 37.2617" /><path
         id="path54"
         style="fill:#a81551;fill-opacity:1;fill-rule:nonzero;stroke:none"
         d="m 1550.19,42.8203 c 14.38,0 23.68,10.8516 23.68,24.8281 0,13.9922 -9.3,24.8399 -23.68,24.8399 -14.43,0 -23.73,-10.8477 -23.73,-24.8399 0,-13.9765 9.3,-24.8281 23.73,-24.8281 m 0,59.9607 c 20.54,0 35.65,-14.2927 35.65,-35.1326 0,-20.8671 -15.11,-35.0898 -35.65,-35.0898 -20.55,0 -35.68,14.2227 -35.68,35.0898 0,20.8399 15.13,35.1326 35.68,35.1326" /><path
         id="path56"
         style="fill:#a81551;fill-opacity:1;fill-rule:nonzero;stroke:none"
         d="m 1599.77,85.1992 c 0,6.1524 -0.55,11.4297 -0.55,15.8598 h 10.55 c 0,-3.5981 0.29,-7.2895 0.29,-10.9809 h 0.28 c 3,6.5508 11.27,12.6719 22.26,12.6719 17.56,0 25.4,-11.1016 25.4,-27.2383 v -41.25 h -11.13 v 40.0977 c 0,11.1523 -4.83,18.1406 -15.26,18.1406 -14.42,0 -20.7,-10.4609 -20.7,-25.7109 V 34.2617 h -11.14 v 50.9375" /><path
         id="path58"
         style="fill:#a81551;fill-opacity:1;fill-rule:nonzero;stroke:none"
         d="m 1706.55,43.6797 c 15.3,0 23.85,11.4414 23.85,24.2695 0,14.4102 -9.72,24.5508 -23.85,24.5508 -13.97,0 -23.55,-10.8594 -23.55,-24.8516 0,-13.5468 10.57,-23.9687 23.55,-23.9687 m 34.97,-6.418 C 1741.52,13.1094 1728.54,0 1705.12,0 c -12.98,0 -23.39,3.41016 -32.8,12.6797 l 7.99,9.1797 c 6.98,-7.5899 14.55,-11.5703 24.81,-11.5703 19.99,0 25.28,12.8398 25.28,26.9726 v 8.5664 h -0.3 c -5.28,-8.5664 -14.69,-12.4375 -23.55,-12.4375 -20.96,0 -35.51,14.5899 -35.51,34.2578 0,21.8399 14.27,35.1326 35.51,35.1326 8.99,0 19.13,-4.2927 23.55,-13.1521 h 0.3 v 11.4301 h 11.12 V 37.2617" /><path
         id="path60"
         style="fill:#a81551;fill-opacity:1;fill-rule:nonzero;stroke:none"
         d="m 1437.33,135.309 h 11.98 V 91.6484 h 1.72 l 45.94,43.6606 h 17.27 l -49.95,-46.0902 52.37,-54.9571 h -17.54 l -48.09,51.3789 h -1.72 V 34.2617 h -11.98 V 135.309" /><path
         id="path62"
         style="fill:#a81551;fill-opacity:1;fill-rule:nonzero;stroke:none"
         d="m 44.1797,245.59 v 21.359 H 120.887 V 245.59 Z m 76.7073,-9.469 V 212.789 H 44.1797 v 23.332 z m -22.4417,80.57 h 60.6757 v 9.469 H 87.2734 v 17.602 c 19.7346,1.758 38.2386,4.379 55.0506,7.808 l 1.754,0.36 -5.402,9.961 -0.946,-0.18 C 98.668,353.93 58.8945,350.012 19.5352,350.012 h -1.7383 l 2.8476,-10.231 1.0235,0.028 c 19.3672,0.492 38.0195,1.519 55.4609,3.043 V 326.16 H 5.24219 v -9.469 H 65.6523 C 59.2266,309.789 50.6797,302.879 40.1602,296.148 27.0703,287.738 14.0273,281.191 1.39453,276.68 L 0,276.18 l 4.51563,-9.258 1.11718,0.406 c 13.08199,4.844 27.49609,12.442 42.91019,22.621 11.4453,8.09 21.0508,16.602 28.5859,25.313 V 276.43 H 34 v -73.059 h 97.059 V 276.43 H 87.2734 v 38.808 c 14.9376,-16.91 37.9886,-32.519 68.5816,-46.429 l 0.868,-0.387 8.261,8.898 -1.754,0.719 c -28.796,11.852 -50.585,24.84 -64.7847,38.652" /><path
         id="path64"
         style="fill:#a81551;fill-opacity:1;fill-rule:nonzero;stroke:none"
         d="m 958.477,249.82 c -11.528,15.309 -19.204,31.91 -23.411,51.68 h 63.063 v 10.828 h -76.524 c 1.895,13.121 3.422,28.512 4.688,46.981 l 0.094,1.41 h -10.633 l -0.074,-1.239 c -1.164,-17.05 -2.848,-33.332 -4.887,-47.152 H 846.352 V 301.5 h 62.566 c -3.969,-20.371 -9.262,-35.621 -15.77,-46.211 -11.14,-18.23 -28.375,-33.488 -52.675,-46.648 l -1.504,-0.821 7.754,-8.289 0.906,0.489 c 26.262,14.109 44.551,30.621 55.879,50.449 6.797,11.793 12.113,28.179 16.25,51.031 h 4.457 c 4.242,-21.352 12.41,-39.781 24.894,-57.238 11.621,-17.321 26.536,-31.774 45.598,-44.153 l 1.09,-0.711 6.953,10.481 -1.16,0.73 c -17.922,10.93 -32.024,23.75 -43.113,39.211" /><path
         id="path66"
         style="fill:#a81551;fill-opacity:1;fill-rule:nonzero;stroke:none"
         d="m 729.535,342.641 -0.781,0.859 c -6.621,7.262 -13.422,12.879 -20.816,17.738 l -0.969,0.653 -6.481,-7.653 1.172,-0.828 c 7.637,-5.469 14.121,-11.16 19.297,-17.43 h -87.035 v -10.281 h 76.566 v -29.48 h -57.492 v -81.328 h 11.594 v 70.988 h 45.898 v -86.481 h 11.563 v 86.481 h 48.054 V 233.34 c 0,-6.16 -2.511,-6.16 -3.464,-6.16 -6.977,0 -15.133,1.789 -24.211,5.3 l -1.969,0.782 0.957,-11.153 0.805,-0.3 c 9.285,-3.25 17.281,-4.829 24.418,-4.829 9.82,0 15.007,5.192 15.007,15.008 v 64.231 h -59.597 v 29.48 h 76.566 v 10.281 h -74.691 l 5.609,6.661" /><path
         id="path68"
         style="fill:#a81551;fill-opacity:1;fill-rule:nonzero;stroke:none"
         d="m 246.395,322.719 1.066,-1.071 6.352,8.442 -0.844,0.82 c -8.164,8 -17.453,15.199 -27.582,21.36 l -1.016,0.621 -5.781,-7.692 1.199,-0.769 c 9.027,-5.782 17.981,-13.09 26.606,-21.711" /><path
         id="path70"
         style="fill:#a81551;fill-opacity:1;fill-rule:nonzero;stroke:none"
         d="m 284.887,276.43 c 3.664,5.449 6.625,10.859 9.047,16.461 h 29.933 c 3.535,-5.672 7.774,-11.161 12.676,-16.461 z m 38.398,48.711 v -22.789 h -29.422 v 22.789 z m -34.324,-76.782 v 18.563 h 40.441 v -18.563 z m 46.82,44.532 h 36.754 v 9.461 h -39.101 v 22.789 h 30.168 v 9.468 h -30.168 v 26.11 h -10.149 v -26.11 h -29.422 v 26.11 h -10.156 v -26.11 h -25.441 v -9.468 h 25.441 v -22.789 h -35.613 v -9.461 h 34.511 c -2.539,-5.321 -6.078,-10.981 -10.558,-16.821 -6.152,-7.879 -13.844,-15.218 -22.871,-21.8 l -1.25,-0.93 7.523,-7.309 0.895,0.668 c 8.379,6.18 15.726,13.211 22.418,21.43 V 220.41 c 0,-6.09 0.902,-10.711 5.336,-13.531 4.32,-2.758 15.715,-3.559 50.863,-3.559 16.309,0 22.66,1.852 25.16,7.289 1.363,2.942 2.266,10.602 2.793,23.45 l 0.039,0.851 -10.863,5.281 -0.133,-3.89 c -0.277,-8.199 -0.547,-15.93 -1.598,-18.5 -1.511,-3.68 -5.968,-4.301 -15.398,-4.301 -26.031,0 -39.785,0.102 -43.363,2.141 -2.243,1.281 -2.637,2.66 -2.637,5.281 v 17.976 h 50.633 v 34.34 c 7.679,-7.726 16.836,-15.039 27.41,-21.859 l 0.945,-0.617 7.938,8.886 -1.395,0.801 c -17.109,9.981 -30.129,20.871 -38.711,32.442" /><path
         id="path72"
         style="fill:#a81551;fill-opacity:1;fill-rule:nonzero;stroke:none"
         d="m 249.57,267.379 -8.429,5.769 -0.5,-1.726 c -6.903,-23.242 -16.586,-44.942 -28.786,-64.5 l -0.66,-1.07 9.227,-6.454 0.707,1.274 c 12.726,22.699 21.945,44.226 28.176,65.789 l 0.265,0.918" /><path
         id="path74"
         style="fill:#a81551;fill-opacity:1;fill-rule:nonzero;stroke:none"
         d="m 238.793,282.469 1.055,-1.18 6.402,8.242 -0.766,0.821 c -8.273,8.988 -17.281,16.679 -27.57,23.527 l -1.016,0.68 -5.808,-7.457 1.121,-0.801 c 9.59,-6.91 18.297,-14.711 26.582,-23.832" /><path
         id="path76"
         style="fill:#a81551;fill-opacity:1;fill-rule:nonzero;stroke:none"
         d="m 1112.85,289.078 c 7.09,3.192 13.72,7.184 19.74,11.91 4.81,-4.269 8.62,-7.879 12.23,-11.617 l 0.61,-0.66 h -33.4 z m -47.58,-9.84 h 128.8 V 260.82 h 9.99 v 27.891 h -11.54 l 1.51,63.777 h -39.4 v -9.527 h 28.98 l -0.26,-11.68 h -28.72 v -9.672 h 28.48 l -0.25,-11.031 h -31.02 v -9.469 h 30.8 l -0.29,-12.398 h -36.23 l 6.43,7.059 -0.96,0.89 c -4.1,3.781 -7.86,7.211 -11.87,10.531 3.61,3.559 6.94,7.508 9.93,11.77 l 0.61,0.848 -3.73,4.211 6.02,6.652 -1.62,1.469 c -3.24,2.937 -6.57,5.968 -10.13,8.839 3.92,3.801 7.61,7.961 11.51,13.239 l 0.63,0.871 -6.06,6.801 -0.96,-1.36 c -3.51,-5.011 -7.55,-9.5 -12.32,-13.871 -4.88,3.61 -10.31,7.27 -16.57,11.149 l -0.96,0.601 -5.75,-6.738 1.26,-0.82 c 5.7,-3.692 10.46,-6.93 14.82,-10.114 -5.21,-3.91 -11.08,-7.328 -17.43,-10.16 l -1.38,-0.617 4.89,-7.891 1.05,0.469 c 7.01,3.152 13.59,7.16 20.12,12.27 3.56,-3.118 7.02,-6.457 9.88,-9.289 l -0.23,-0.321 c -3.11,-4.41 -6.64,-8.449 -10.77,-12.371 -4.66,3.371 -9.46,6.582 -14.77,10.07 l -0.99,0.661 -5.74,-7 1.26,-0.789 c 4.03,-2.508 8.25,-5.418 12.91,-8.891 -5.08,-3.777 -10.64,-7.059 -16.97,-9.988 l -1.38,-0.653 4.9,-7.527 h -35.62 L 1076,301.82 h 30.8 v 9.469 h -31.04 l -0.14,10.32 h 29.97 v 9.672 h -30 l -0.12,7.039 c 10.87,2.032 21.41,5.539 32.19,10.731 l 1.31,0.629 -5.61,9.05 -1.06,-0.449 c -12.67,-5.472 -24.42,-8.972 -35.92,-10.722 l -1.16,-0.168 1.42,-58.68 h -11.53 V 260.82 h 10.16 v 18.418" /><path
         id="path78"
         style="fill:#a81551;fill-opacity:1;fill-rule:nonzero;stroke:none"
         d="m 1209.67,240.148 h -76.08 c -0.04,0.122 -0.09,0.25 -0.14,0.383 -0.12,0.348 -0.25,0.719 -0.38,1.078 17.87,5.461 33.52,12.219 46.51,20.102 l 0.66,0.379 v 8.211 h -100.61 v -9.481 h 79.74 c -8.48,-3.699 -18.2,-7.07 -28.96,-10.05 l -0.03,-0.008 c -0.38,-0.071 -1.39,-0.293 -2.51,-0.602 l -0.06,-0.019 c -0.08,-0.02 -0.13,-0.032 -0.21,-0.051 -1.24,-0.328 -3.02,-0.77 -4.74,-1.18 -0.77,-0.18 -1.53,-0.371 -2.25,-0.551 l -1.63,-0.39 0.77,-1.489 c 0.97,-1.871 1.79,-3.839 2.67,-6.332 h -72.93 v -9.468 h 75.66 c 0.94,-4.11 1.72,-7.782 1.91,-12.821 0.17,-4.449 -0.24,-6.437 -1.47,-7.347 -0.83,-0.614 -1.65,-0.942 -3.45,-0.942 -5.24,0 -11.15,1.34 -18.11,4.102 l -1.99,0.797 0.98,-11.231 0.83,-0.269 c 7.41,-2.399 14.03,-3.571 20.19,-3.571 4.05,0 7.27,0.981 9.65,2.954 2.95,2.558 4.19,7.218 4.16,15.578 -0.03,4.23 -0.6,8 -1.63,12.75 h 73.45 v 9.468" /><path
         id="path80"
         style="fill:#a81551;fill-opacity:1;fill-rule:nonzero;stroke:none"
         d="m 475.273,252.711 -1.675,10.34 -1.645,-0.91 c -4.848,-2.661 -8.336,-4.231 -14.82,-6.821 v 46.52 h 17.941 v 9.449 h -17.941 v 44.539 h -10.18 v -44.539 h -20.637 v -9.449 h 20.637 v -50.539 c -7.273,-2.852 -14.058,-5.379 -22.281,-7.723 l -1.574,-0.449 5.316,-9.938 1.055,0.34 c 15.16,4.949 29.863,11.078 44.949,18.739 l 0.855,0.441" /><path
         id="path82"
         style="fill:#a81551;fill-opacity:1;fill-rule:nonzero;stroke:none"
         d="m 577.594,235.199 c -0.977,-11.66 -2.16,-20.109 -3.27,-23.25 -0.761,-2.258 -1.898,-2.258 -2.265,-2.258 -1.961,0 -5.754,3.61 -10.512,13.758 -2.555,5.422 -4.836,11.563 -6.797,18.27 0.023,0.019 0.035,0.031 0.051,0.051 l 0.117,0.128 c 8.68,12.231 15.824,32.282 21.25,59.602 l 0.25,1.309 -10.711,2.05 -0.234,-1.289 c -3.817,-19.519 -8.696,-35.359 -14.543,-47.148 -1.266,5.449 -2.508,11.648 -3.532,17.816 -2.148,13.793 -3.582,28.614 -4.269,44.043 h 41.301 v 9.489 h -41.778 c -0.445,9.64 -0.656,20 -0.656,31.628 v 1.321 h -10.84 v -1.321 c 0,-12.726 0.184,-22.546 0.606,-31.628 h -50.571 v -49.661 c 0,-17.988 -2.375,-32.007 -7.066,-42.8 -4.578,-10.629 -11.117,-19.418 -19.969,-26.868 l -0.992,-0.839 6.547,-8.204 1.031,0.852 c 9.59,7.969 16.875,17.41 22.274,28.898 5.547,11.954 8.355,27.692 8.355,47.903 v 7.758 h 25.332 c -0.672,-20.321 -2.015,-34.75 -3.765,-40.668 -1.743,-5.411 -4.336,-5.411 -5.196,-5.411 -2.793,0 -6.64,0.36 -14.148,2.95 l -1.762,0.621 v -11.09 l 0.949,-0.281 c 7.215,-2.168 12.117,-3.102 16.367,-3.102 5.407,0 9.481,3.402 12.118,10.152 2.714,7.231 4.632,25.731 5.699,54.969 l 0.043,1.36 h -35.637 v 23.972 h 40.895 c 1.062,-18.203 2.984,-34.883 5.722,-49.57 1.528,-8.332 3.52,-16.961 5.641,-24.391 -8.563,-12.191 -19.918,-23.379 -34.645,-33.531 l -1.171,-0.801 6.226,-7.679 1.004,0.64 c 12.922,8.403 23.516,18.039 32.355,28.93 2,-5.719 4.407,-11.199 7.219,-16.309 5.481,-10 11.113,-15.261 17.258,-16.082 3.777,-0.519 7.473,1.293 9.535,4.621 2.57,4.129 4.399,12.129 5.797,25.2 l 0.078,0.73 -9.488,7.641 -0.203,-2.481" /><path
         id="path84"
         style="fill:#a81551;fill-opacity:1;fill-rule:nonzero;stroke:none"
         d="m 565.551,330.66 0.637,-1.469 9.109,6.258 -0.527,1.039 c -4.161,8.172 -8.559,14.641 -14.704,21.653 l -0.773,0.879 -8.273,-5.649 0.91,-1.121 c 6.445,-7.949 10.379,-14.211 13.621,-21.59" /><path
         id="path86"
         style="fill:#ffffff;fill-opacity:1;fill-rule:nonzero;stroke:none"
         d="M 2295.16,1473.66 804.852,1086.14 c -2.168,-0.55 -6.305,-2.01 -8.856,-3.72 -2.594,-1.71 -4.855,-3.94 -7.133,-6.97 L 465.375,648.148 c -1.215,-1.609 -1.141,-3.117 -1.16,-4.46 -0.055,-2.477 1.996,-4.872 3.961,-5.309 l 323.918,-70.524 19.004,-6.593 60.433,-13.043 41.461,-5.781 406.648,-87.739 36.59,-11.058 46.83,-10.11 31.99,-4.07 635.6,-137.32 224.51,1181.519" /><path
         id="path88"
         style="fill:#a81551;fill-opacity:1;fill-rule:nonzero;stroke:none"
         d="m 1947.64,716.547 c -3.11,-35.801 -7.3,-61.172 -12.66,-77.746 -5.53,-16.785 -15.36,-33.149 -29.1,-48.621 -25.62,-28.575 -62.82,-43.121 -110.47,-43.121 -48.72,0 -84.03,12.855 -104.91,38.066 -20.7,25.176 -26.1,64.313 -21.48,117.477 l 12.35,143.039 h -39.55 l 3.65,42 h 103.11 l -3.44,-42 -11.32,-127.883 c -2.8,-31.945 -2.87,-55.469 -1.03,-69.879 1.59,-13.582 6.19,-24.973 13.32,-33.688 13.77,-16.843 32.8,-25.054 58.06,-25.054 24.33,0 44.39,7.59 61.45,23.445 15.86,14.621 25.5,46.242 29.7,94.008 l 12.39,142.879 c 0,0 3.27,38.172 44.89,38.172 h 9.89 z M 1240.57,600.266 c 4.9,-7.828 12.64,-11.629 23.82,-11.629 36.67,0 35.32,-35.11 35.32,-35.11 0,0 -28.1,-6.336 -46.78,-6.336 -30.33,0 -52.49,8.235 -65.65,24.579 -13.09,16.089 -18.12,41.144 -15.18,74.55 l 21.52,247.977 64.84,15.68 -5.64,-64.356 h 48.8 l -3.6,-41.379 h -48.75 l -14.29,-164.547 c -1.54,-17.66 0.36,-30.882 5.59,-39.429 z m -131.54,266.535 c -17.51,0 -30.48,14.179 -28.92,31.668 1.58,17.461 16.92,31.644 34.45,31.644 17.47,0 30.5,-14.183 28.89,-31.644 -1.43,-17.489 -16.93,-31.668 -34.42,-31.668 z m 2.69,-319.528 c 0,0 -63.73,-3.175 -58.13,61.61 l 16.87,194.125 h -33.48 l 3.71,42.613 h 96.94 z m 1229.43,776.117 -42.67,153.83 -1494.292,-388.54 c -2.469,-0.67 -6.829,-2.23 -9.633,-4.1 -3.153,-2.1 -5.645,-4.73 -7.782,-7.58 L 461.301,647.016 c -3.684,-4.856 -1.789,-9.903 4.133,-11.176 l 345.664,-74.578 c -30.223,11.285 -52.875,27.691 -64.535,41.429 -30.856,36.539 -44.313,86.844 -36.879,140.45 18.836,136.187 116.586,197.187 207.027,197.187 43.18,0 84.069,-7.121 116.259,-24.777 l -5.26,-60.582 h -44.542 l 2.031,23.41 c -16.312,10.141 -74.414,19.34 -122.34,-0.227 -56.261,-25.832 -80.492,-92.679 -83.648,-137.582 -2.199,-32.011 2.297,-73.898 24.742,-104.199 22.551,-30.48 85.676,-53.781 160,-28.859 33.039,11.586 47.777,-22.586 47.777,-22.586 l -3.42,-1.914 C 959.188,553.844 912.184,545.461 871.531,548.219 l 484.699,-104.578 67.59,123.589 -75.44,235.778 H 1317 l 3.7,42.613 h 80.42 l 64.61,-201.898 89.47,163.48 c 0,0 15.3,38.418 64.26,38.418 h 16.38 L 1410.27,444.488 c -2.3,-4.097 -4.57,-7.816 -7.21,-10.957 l 669.73,-144.5 4.23,-0.929 c 2.47,-0.524 5.76,4.07 7.28,9.968 l 257.04,1003.91 c 0.73,2.77 1.52,6.29 1.53,9.96 0.01,4.1 -0.86,8.36 -1.72,11.45" /></g></g></svg>